<?xml version="1.0" encoding="UTF-8" standalone="no"?>
<svg
   xmlns:dc="http://purl.org/dc/elements/1.1/"
   xmlns:cc="http://creativecommons.org/ns#"
   xmlns:rdf="http://www.w3.org/1999/02/22-rdf-syntax-ns#"
   xmlns:svg="http://www.w3.org/2000/svg"
   xmlns="http://www.w3.org/2000/svg"
   xmlns:sodipodi="http://sodipodi.sourceforge.net/DTD/sodipodi-0.dtd"
   xmlns:inkscape="http://www.inkscape.org/namespaces/inkscape"
   inkscape:version="1.0 (4035a4fb49, 2020-05-01)"
   sodipodi:docname="game_add_black_24dp.svg"
   id="svg6"
   version="1.1"
   fill="#000000"
   width="24px"
   viewBox="0 0 24 24"
   height="24px">
  <metadata
     id="metadata12">
    <rdf:RDF>
      <cc:Work
         rdf:about="">
        <dc:format>image/svg+xml</dc:format>
        <dc:type
           rdf:resource="http://purl.org/dc/dcmitype/StillImage" />
        <dc:title></dc:title>
      </cc:Work>
    </rdf:RDF>
  </metadata>
  <defs
     id="defs10" />
  <sodipodi:namedview
     inkscape:current-layer="svg6"
     inkscape:window-maximized="1"
     inkscape:window-y="-8"
     inkscape:window-x="-8"
     inkscape:cy="12.565672"
     inkscape:cx="0.57159047"
     inkscape:zoom="21.655145"
     showgrid="false"
     id="namedview8"
     inkscape:window-height="992"
     inkscape:window-width="1920"
     inkscape:pageshadow="2"
     inkscape:pageopacity="0"
     guidetolerance="10"
     gridtolerance="10"
     objecttolerance="10"
     borderopacity="1"
     bordercolor="#666666"
     pagecolor="#ffffff" />
  <path
     id="path2"
     fill="none"
     d="M0 0h24v24H0V0z" />
  <path
     id="path851"
     d="M 5.551827,21.164915 C 5.4479546,20.777151 5.480778,19.40218 5.600163,19.140159 5.662141,19.00413 5.8090416,18.867021 5.9266073,18.835471 c 0.1175661,-0.03155 2.4749979,-0.05798 5.2387437,-0.05873 4.386924,-0.0012 5.053328,0.01849 5.248221,0.154992 0.208573,0.14609 0.223237,0.231869 0.223237,1.305777 v 1.149415 h -0.803555 c -0.571121,0 -0.806137,-0.03632 -0.81248,-0.125554 -0.005,-0.06906 -0.0016,-0.339432 0.0074,-0.600838 0.03304,-0.964843 0.412107,-0.880718 -3.968525,-0.880718 H 7.2034787 l -0.029336,0.778444 -0.029336,0.778444 -0.7656844,0.02911 c -0.7245749,0.02754 -0.7689918,0.01676 -0.8272944,-0.200891 z M 1.8397147,19.539138 C 1.6288911,19.461035 1.3641815,19.313734 1.2514711,19.211804 0.93181935,18.922725 0.66614185,18.32002 0.66614185,17.883949 c 0,-0.463551 1.20447945,-3.916892 1.53524635,-4.401676 C 2.514368,13.02356 3.0565332,12.7487 3.648374,12.7487 c 0.6628909,0 1.0754829,0.279768 2.6426547,1.791923 l 1.2555551,1.211478 1.0843432,0.005 c 1.0140305,0.0046 1.1003353,0.02096 1.3308931,0.25151 0.3013029,0.301303 0.3145259,0.644386 0.03837,0.995465 -0.2075359,0.263839 -0.2126143,0.264656 -1.6425512,0.264656 H 6.9232707 l -0.793232,-0.749053 c -0.4362774,-0.41198 -0.8384792,-0.75098 -0.8937813,-0.753332 -0.055302,-0.0024 -0.2766788,0.504221 -0.4919477,1.12572 -0.5820312,1.680373 -0.8271923,2.157494 -1.2535852,2.439667 -0.4675224,0.309392 -1.1457844,0.394612 -1.6510097,0.20744 z m 17.1511463,0.03753 c -0.641832,-0.196568 -0.96799,-0.683761 -1.542452,-2.304008 -0.29458,-0.830851 -0.577962,-1.510637 -0.629738,-1.510637 -0.05177,0 -0.451293,0.340218 -0.887812,0.756038 l -0.793676,0.756038 -1.474408,-0.02781 c -1.465845,-0.02765 -1.475567,-0.02937 -1.673936,-0.295295 -0.230492,-0.308984 -0.188548,-0.625193 0.127998,-0.964964 0.190364,-0.204334 0.303148,-0.22427 1.284552,-0.22706 l 1.075865,-0.003 1.255555,-1.208934 c 1.595179,-1.535947 1.984014,-1.798901 2.656331,-1.796374 0.386865,0.0015 0.620393,0.07271 0.981392,0.299409 0.481698,0.302509 0.707392,0.661533 0.978717,1.556904 0.122579,0.404516 0.275699,0.826364 0.761211,2.097165 0.443015,1.159567 0.296048,1.993547 -0.455875,2.586903 -0.395435,0.312045 -1.152939,0.442121 -1.663724,0.285689 z M 4.9115719,11.979624 C 4.1724565,11.71794 3.5775462,10.878205 3.57959,10.099489 3.584569,8.2023214 6.0768762,7.4041981 7.1914635,8.9428413 7.9836835,10.036469 7.4519949,11.611472 6.1611846,11.994799 5.5527917,12.17547 5.461603,12.174363 4.9115719,11.979624 Z m 10.9804831,0.04604 c -0.545551,-0.150247 -1.191964,-0.819989 -1.355632,-1.404554 -0.232198,-0.8293311 0.121339,-1.7201866 0.874628,-2.2039147 0.427741,-0.274676 0.53625,-0.3000185 1.147214,-0.2679361 0.745099,0.039127 1.008846,0.1806147 1.524651,0.8179089 0.248758,0.3073481 0.309822,0.4869347 0.343058,1.0089085 0.03391,0.5325634 9.05e-4,0.7061554 -0.204464,1.0760424 -0.441104,0.794379 -1.449616,1.215865 -2.329455,0.973548 z"
     style="fill:#000000;stroke-width:0.999999" />
  <path
     style="fill:#4d4d4d;fill-opacity:1;stroke-width:1;stroke-miterlimit:4;stroke-dasharray:none"
     id="path4"
     d="M 23.333858,6.8987904 H 20.119572 V 10.113076 H 19.048143 V 6.8987904 H 15.833858 V 5.8273617 h 3.214285 V 2.6130755 h 1.071429 v 3.2142862 h 3.214286 z" />
</svg>
