<?xml version="1.0" encoding="UTF-8" standalone="no"?>
<svg
   xmlns:dc="http://purl.org/dc/elements/1.1/"
   xmlns:cc="http://creativecommons.org/ns#"
   xmlns:rdf="http://www.w3.org/1999/02/22-rdf-syntax-ns#"
   xmlns:svg="http://www.w3.org/2000/svg"
   xmlns="http://www.w3.org/2000/svg"
   xmlns:sodipodi="http://sodipodi.sourceforge.net/DTD/sodipodi-0.dtd"
   xmlns:inkscape="http://www.inkscape.org/namespaces/inkscape"
   inkscape:version="1.0 (4035a4fb49, 2020-05-01)"
   sodipodi:docname="save_black_24dp.svg"
   id="svg6"
   version="1.1"
   fill="#000000"
   width="24px"
   viewBox="0 0 24 24"
   height="24px">
  <metadata
     id="metadata12">
    <rdf:RDF>
      <cc:Work
         rdf:about="">
        <dc:format>image/svg+xml</dc:format>
        <dc:type
           rdf:resource="http://purl.org/dc/dcmitype/StillImage" />
      </cc:Work>
    </rdf:RDF>
  </metadata>
  <defs
     id="defs10" />
  <sodipodi:namedview
     inkscape:current-layer="svg6"
     inkscape:window-maximized="1"
     inkscape:window-y="-8"
     inkscape:window-x="-8"
     inkscape:cy="13.479754"
     inkscape:cx="-0.043544543"
     inkscape:zoom="15.3125"
     showgrid="false"
     id="namedview8"
     inkscape:window-height="992"
     inkscape:window-width="1920"
     inkscape:pageshadow="2"
     inkscape:pageopacity="0"
     guidetolerance="10"
     gridtolerance="10"
     objecttolerance="10"
     borderopacity="1"
     bordercolor="#666666"
     pagecolor="#ffffff" />
  <path
     id="path2"
     fill="none"
     d="M0 0h24v24H0V0z" />
  <path
     sodipodi:nodetypes="cssssssccccccccsssss"
     id="path4"
     d="M 17,3 H 5 C 3.89,3 3,3.9 3,5 v 14 c 0,1.1 0.89,2 2,2 h 14 c 1.1,0 2,-0.9 2,-2 V 7 Z m 2,16 H 5 V 5 H 16.17 L 19,7.83 Z m -7,-7 c -1.66,0 -3,1.34 -3,3 0,1.66 1.34,3 3,3 1.66,0 3,-1.34 3,-3 0,-1.66 -1.34,-3 -3,-3 z" />
  <path
     sodipodi:nodetypes="sccsssccssscsssccsssccccccc"
     style="stroke-width:0.999998"
     d="m 15.02449,6.2979591 h -2.328163 v 0.837551 h 2.328163 c 0.690979,0 1.256326,0.5653469 1.256326,1.2563264 0,0.6909795 -0.565619,1.2369517 -1.256326,1.2563264 h -2.328163 v 0.8375511 h 2.328163 c 1.15582,0 2.093877,-0.9380572 2.093877,-2.0938775 0,-1.1558203 -0.938512,-2.126286 -2.093877,-2.0938774 z M 10.552653,9.6481629 H 8.2244895 c -0.6909793,0 -1.2563263,-0.5653469 -1.2563263,-1.2563264 0,-0.6909795 0.565347,-1.2563264 1.2563263,-1.2563264 H 10.552653 V 6.2979591 H 8.2244895 c -1.1558201,0 -2.0938772,0.9380571 -2.0938772,2.0938774 0,1.1558203 0.9380571,2.0938775 2.0938772,2.0938775 H 10.552653 Z M 8.643265,7.973061 h 5.962449 V 8.810612 H 8.643265 Z"
     id="path4-4" />
</svg>
